<svg id="Layer_1" data-name="Layer 1" xmlns="http://www.w3.org/2000/svg" viewBox="0 0 30 27.53"><title>BW_moxon</title><path d="M0,.56a.56.56,0,1,0,1.13,0h0A.56.56,0,0,0,0,.56M0,2.8a.56.56,0,1,0,.56-.56A.56.56,0,0,0,0,2.8m0,2.26a.56.56,0,1,0,.56-.56.55.55,0,0,0-.56.56M.56,7.23a.56.56,0,1,0,.56-.56.55.55,0,0,0-.56.56M1.83,9.05A.56.56,0,1,0,3,9.05H3a.56.56,0,0,0-1.13,0m1.9,1.15a.56.56,0,1,0,.56-.57.56.56,0,0,0-.56.57m2.14.68a.56.56,0,1,0,.56-.56.56.56,0,0,0-.56.56M8,11.54A.56.56,0,1,0,8.57,11a.56.56,0,0,0-.56.56m2.14.68a.56.56,0,1,0,.56-.56.54.54,0,0,0-.56.56m2.14.66a.56.56,0,1,0,.56-.56.55.55,0,0,0-.56.56m4.3,1.77a.56.56,0,1,0,.56-.56h0a.58.58,0,0,0-.56.56m2.15.68a.56.56,0,1,0,.56-.56.56.56,0,0,0-.56.56m2.12.66a.56.56,0,1,0,.57-.56h0a.58.58,0,0,0-.57.56m2.14.68a.56.56,0,1,0,.56-.56h0a.57.57,0,0,0-.56.56m2.14.68a.56.56,0,1,0,1.13,0s0,0,0,0a.56.56,0,0,0-1.12,0M27,18.5a.56.56,0,1,0,.56-.56h0a.54.54,0,0,0-.56.56m1.26,1.83a.56.56,0,1,0,.56-.56h0a.54.54,0,0,0-.56.56m.51,2.16a.56.56,0,1,0,.56-.56.58.58,0,0,0-.56.56m.06,2.25a.56.56,0,0,0,1.13,0s0,0,0,0a.57.57,0,0,0-.56-.57.54.54,0,0,0-.56.57m0,2.24a.56.56,0,1,0,.56-.56.55.55,0,0,0-.56.56M30,.56a.56.56,0,1,1-1.13,0s0,0,0,0A.56.56,0,0,1,30,.56M30,2.8a.55.55,0,1,1-.56-.56A.56.56,0,0,1,30,2.8m0,2.26a.56.56,0,1,1-.56-.56.55.55,0,0,1,.56.54s0,0,0,0m-.51,2.18a.56.56,0,1,1-.56-.56.54.54,0,0,1,.56.56M28.17,9.05A.56.56,0,1,1,27,9.1s0,0,0,0a.56.56,0,0,1,1.13,0M26.27,10.2a.56.56,0,1,1-1.12,0s0,0,0,0a.56.56,0,0,1,1.13,0m-2.14.68a.56.56,0,1,1-.56-.56.56.56,0,0,1,.56.56M22,11.54a.56.56,0,1,1-1.13,0h0a.56.56,0,0,1,1.13,0m-2.14.68a.56.56,0,1,1-.57-.56.54.54,0,0,1,.57.56m-2.14.66a.56.56,0,1,1-.56-.56h0a.55.55,0,0,1,.56.56m-2.16.9a.56.56,0,1,1-.56-.56.54.54,0,0,1,.56.56m-2.14.87a.56.56,0,1,1-.56-.56h0a.58.58,0,0,1,.56.56m-2.14.68a.56.56,0,1,1-.56-.56.58.58,0,0,1,.56.56M9.15,16a.56.56,0,1,1-.56-.56.56.56,0,0,1,.56.56M7,16.67a.56.56,0,1,1-.56-.56h0a.56.56,0,0,1,.56.56m-2.14.68a.56.56,0,0,1-1.12,0h0a.56.56,0,0,1,1.12,0M3,18.5a.56.56,0,1,1-.56-.56h0A.55.55,0,0,1,3,18.5M1.69,20.32a.56.56,0,1,1-.56-.56h0a.54.54,0,0,1,.56.56m-.51,2.16a.56.56,0,1,1-.56-.56.58.58,0,0,1,.56.56m-.06,2.25a.56.56,0,1,1-.56-.57.54.54,0,0,1,.56.57m0,2.24a.56.56,0,1,1-.56-.56.55.55,0,0,1,.56.56"/></svg>