<svg xmlns="http://www.w3.org/2000/svg" width="30" height="27.534" viewBox="4.976 5.911 30 27.534"><g fill="#FFF"><path d="M4.995 6.475a.563.563 0 1 0 1.126 0 .563.563 0 0 0-1.126 0M4.995 8.708a.564.564 0 1 0 1.128 0 .564.564 0 0 0-1.128 0M5.034 10.963a.563.563 0 1 0 .563-.564c-.291-.02-.563.234-.563.564M5.539 13.139a.563.563 0 1 0 .564-.564c-.293-.019-.564.233-.564.564M6.801 14.965a.563.563 0 1 0 1.126 0 .563.563 0 0 0-1.126 0M8.705 16.112a.564.564 0 1 0 1.128-.002.564.564 0 0 0-1.128.002M10.843 16.792a.563.563 0 1 0 1.127.001.563.563 0 0 0-1.127-.001M12.981 17.453a.563.563 0 1 0 1.126 0 .563.563 0 0 0-1.126 0M15.118 18.132a.563.563 0 1 0 .564-.563c-.312-.019-.564.233-.564.563M17.255 18.793a.563.563 0 1 0 .563-.564c-.31-.019-.563.254-.563.564M21.551 20.562a.564.564 0 1 0 .562-.563.575.575 0 0 0-.562.563M23.706 21.242c0 .312.252.563.562.563s.565-.252.565-.563-.255-.564-.565-.564-.562.253-.562.564M25.824 21.903a.564.564 0 0 0 1.127 0 .562.562 0 0 0-.561-.563.579.579 0 0 0-.566.563M27.962 22.583a.563.563 0 1 0 .563-.563.575.575 0 0 0-.563.563M30.1 23.263a.563.563 0 1 0 1.125-.001.563.563 0 0 0-1.125.001M32.024 24.408a.564.564 0 1 0 .562-.563c-.31-.02-.562.233-.562.563M33.286 26.235a.563.563 0 1 0 .563-.563c-.311-.02-.563.233-.563.563M33.791 28.393a.562.562 0 1 0 .562-.563.575.575 0 0 0-.562.563M33.85 30.646a.563.563 0 1 0 1.125 0 .566.566 0 0 0-.563-.565c-.31-.019-.562.235-.562.565M33.85 32.882a.562.562 0 1 0 .562-.563c-.31-.02-.562.251-.562.563M34.956 6.475a.564.564 0 1 1-1.127-.001.564.564 0 0 1 1.127.001M34.956 8.708c0 .311-.253.564-.563.564a.564.564 0 0 1-.001-1.127c.31 0 .564.253.564.563M34.917 10.963a.563.563 0 1 1-.563-.564.551.551 0 0 1 .563.564M34.412 13.139a.563.563 0 1 1-.562-.564c.31-.019.562.233.562.564M33.15 14.965a.564.564 0 1 1-1.127-.001.564.564 0 0 1 1.127.001M31.245 16.112a.563.563 0 1 1-1.125 0 .563.563 0 0 1 1.125 0M29.107 16.792a.563.563 0 1 1-1.126.002.563.563 0 0 1 1.126-.002M26.972 17.453a.563.563 0 1 1-1.126 0 .563.563 0 0 1 1.126 0M24.834 18.132a.563.563 0 1 1-.565-.563c.31-.019.565.233.565.563M22.696 18.793a.564.564 0 1 1-.563-.564c.31-.019.563.254.563.564M20.539 19.688a.563.563 0 1 1-.563-.564c.311-.02.563.232.563.564M18.402 20.562a.564.564 0 1 1-.564-.563c.292 0 .564.252.564.563M16.264 21.242a.562.562 0 1 1-1.127 0c0-.311.252-.564.564-.564.292 0 .563.253.563.564M14.127 21.903a.563.563 0 1 1-1.126-.002.563.563 0 0 1 1.126.002M11.99 22.583a.563.563 0 1 1-.563-.563c.31 0 .563.252.563.563M9.852 23.263a.562.562 0 1 1-1.124 0 .562.562 0 0 1 1.124 0M7.948 24.408a.564.564 0 1 1-.564-.563c.292-.02.564.233.564.563M6.666 26.235a.563.563 0 1 1-.563-.563c.31-.02.563.233.563.563M6.161 28.393a.563.563 0 1 1-.564-.563.576.576 0 0 1 .564.563M6.103 30.646a.564.564 0 1 1-.564-.565c.31-.019.564.235.564.565M6.103 32.882a.563.563 0 1 1-.564-.563c.31-.02.564.251.564.563"/></g></svg>