<svg id="Layer_1" data-name="Layer 1" xmlns="http://www.w3.org/2000/svg" viewBox="0 0 385.51 57.78"><defs><style>.cls-1{fill:#222221}</style></defs><title>moxon_logo_outlined</title><path class="cls-1" d="M95.85 405.51a1.16 1.16 0 1 0 1.15-1.15 1.16 1.16 0 0 0-1.16 1.16M95.85 400.88a1.16 1.16 0 1 0 1.15-1.16 1.16 1.16 0 0 0-1.16 1.16M95.85 396.23a1.16 1.16 0 1 0 1.15-1.16 1.16 1.16 0 0 0-1.16 1.16M95.85 391.59a1.16 1.16 0 1 0 1.15-1.16 1.16 1.16 0 0 0-1.16 1.16M95.85 386.94a1.16 1.16 0 1 0 1.15-1.15 1.16 1.16 0 0 0-1.16 1.16M95.85 382.3a1.16 1.16 0 1 0 1.15-1.16 1.16 1.16 0 0 0-1.16 1.16M95.85 377.67a1.16 1.16 0 1 0 1.15-1.16 1.16 1.16 0 0 0-1.16 1.16M95.86 373a1.16 1.16 0 1 0 1.14-1.14 1.16 1.16 0 0 0-1.14 1.14M95.9 368.37a1.16 1.16 0 1 0 1.16-1.16 1.16 1.16 0 0 0-1.16 1.16M96 363.73a1.16 1.16 0 1 0 1.16-1.16 1.16 1.16 0 0 0-1.16 1.16M96.23 359.09a1.16 1.16 0 1 0 1.16-1.16 1.16 1.16 0 0 0-1.16 1.16M97.61 354.71a1.16 1.16 0 1 0 1.16-1.16 1.16 1.16 0 0 0-1.16 1.16M100.87 351.46a1.16 1.16 0 1 0 1.13-1.16 1.16 1.16 0 0 0-1.16 1.16M105.32 350.32a1.16 1.16 0 1 0 1.16-1.16 1.16 1.16 0 0 0-1.16 1.16M110 350.11a1.16 1.16 0 1 0 1.16-1.16 1.16 1.16 0 0 0-1.16 1.16M114.6 350.06a1.16 1.16 0 1 0 1.16-1.16 1.16 1.16 0 0 0-1.16 1.16M119.24 350.11a1.16 1.16 0 1 0 1.16-1.11 1.16 1.16 0 0 0-1.16 1.16M123.88 350.34a1.16 1.16 0 1 0 1.16-1.16 1.16 1.16 0 0 0-1.16 1.16M128.29 351.61a1.16 1.16 0 1 0 1.16-1.16 1.16 1.16 0 0 0-1.16 1.16M131.5 354.9a1.16 1.16 0 1 0 1.16-1.16 1.16 1.16 0 0 0-1.16 1.16M133.53 359.27a1.16 1.16 0 1 0 1.16-1.16 1.16 1.16 0 0 0-1.16 1.16M133.53 363.91a1.16 1.16 0 1 0 1.16-1.16 1.16 1.16 0 0 0-1.16 1.16M133.53 368.55a1.16 1.16 0 1 0 1.16-1.16 1.16 1.16 0 0 0-1.16 1.16M133.53 373.2a1.16 1.16 0 1 0 1.16-1.16 1.16 1.16 0 0 0-1.16 1.16M133.53 377.84a1.16 1.16 0 1 0 1.16-1.16 1.16 1.16 0 0 0-1.16 1.16M133.53 382.48a1.16 1.16 0 1 0 1.16-1.16 1.16 1.16 0 0 0-1.16 1.16M133.53 387.13a1.16 1.16 0 1 0 1.16-1.16 1.16 1.16 0 0 0-1.16 1.16M135.58 354.86a1.16 1.16 0 1 0 1.16-1.16 1.16 1.16 0 0 0-1.16 1.16M138.81 351.58a1.16 1.16 0 1 0 1.16-1.16 1.16 1.16 0 0 0-1.16 1.16M143.23 350.34a1.16 1.16 0 1 0 1.16-1.16 1.16 1.16 0 0 0-1.16 1.16M147.87 350.11A1.16 1.16 0 1 0 149 349a1.16 1.16 0 0 0-1.16 1.16M152.51 350.06a1.16 1.16 0 1 0 1.16-1.16 1.16 1.16 0 0 0-1.16 1.16M157.15 350.11a1.16 1.16 0 1 0 1.16-1.16 1.16 1.16 0 0 0-1.16 1.16M161.79 350.32a1.16 1.16 0 1 0 1.16-1.16 1.16 1.16 0 0 0-1.16 1.16M166.24 351.48a1.16 1.16 0 1 0 1.16-1.16 1.16 1.16 0 0 0-1.16 1.16M169.51 354.71a1.16 1.16 0 1 0 1.16-1.16 1.16 1.16 0 0 0-1.16 1.16M170.91 359.09a1.16 1.16 0 1 0 1.16-1.16 1.16 1.16 0 0 0-1.16 1.16M171.1 363.73a1.16 1.16 0 1 0 1.16-1.16 1.16 1.16 0 0 0-1.16 1.16M171.17 368.37a1.16 1.16 0 1 0 1.16-1.16 1.16 1.16 0 0 0-1.16 1.16M171.21 373a1.16 1.16 0 1 0 1.16-1.16 1.16 1.16 0 0 0-1.16 1.16M171.21 377.66a1.16 1.16 0 1 0 1.16-1.16 1.16 1.16 0 0 0-1.16 1.16M171.21 382.3a1.16 1.16 0 1 0 1.16-1.16 1.16 1.16 0 0 0-1.16 1.16M171.21 386.94a1.16 1.16 0 1 0 1.16-1.16 1.16 1.16 0 0 0-1.16 1.16M171.21 391.59a1.16 1.16 0 1 0 1.16-1.16 1.16 1.16 0 0 0-1.16 1.16M171.21 396.23a1.16 1.16 0 1 0 1.16-1.16 1.16 1.16 0 0 0-1.16 1.16M171.21 400.88a1.16 1.16 0 1 0 1.16-1.16 1.16 1.16 0 0 0-1.16 1.16M171.21 405.52a1.16 1.16 0 1 0 1.16-1.16 1.16 1.16 0 0 0-1.16 1.16M191.41 361.45a1.16 1.16 0 1 0 1.16-1.16 1.16 1.16 0 0 0-1.16 1.16M191.24 366.09a1.16 1.16 0 1 0 1.16-1.16 1.16 1.16 0 0 0-1.16 1.16M192.18 356.89a1.16 1.16 0 1 0 1.16-1.16 1.16 1.16 0 0 0-1.16 1.16M194.85 353.15A1.16 1.16 0 1 0 196 352a1.16 1.16 0 0 0-1.16 1.16M199 351.23a1.16 1.16 0 1 0 1.16-1.16 1.16 1.16 0 0 0-1.16 1.16M203.63 350.77a1.16 1.16 0 1 0 1.16-1.16 1.16 1.16 0 0 0-1.16 1.16M208.26 350.43a1.16 1.16 0 1 0 1.16-1.16 1.16 1.16 0 0 0-1.16 1.16M212.9 350.19a1.16 1.16 0 1 0 1.16-1.16 1.16 1.16 0 0 0-1.16 1.16M217.54 350.07a1.16 1.16 0 1 0 1.16-1.16 1.16 1.16 0 0 0-1.16 1.16M222.19 350.08a1.16 1.16 0 1 0 1.16-1.16 1.16 1.16 0 0 0-1.16 1.16M226.83 350.2A1.16 1.16 0 1 0 228 349a1.16 1.16 0 0 0-1.16 1.16M231.46 350.44a1.16 1.16 0 1 0 1.16-1.16 1.16 1.16 0 0 0-1.16 1.16M236.09 350.79a1.16 1.16 0 1 0 1.16-1.16 1.16 1.16 0 0 0-1.16 1.16M240.71 351.27a1.16 1.16 0 1 0 1.16-1.16 1.16 1.16 0 0 0-1.16 1.16M244.82 353.29a1.16 1.16 0 1 0 1.16-1.16 1.16 1.16 0 0 0-1.16 1.16M247.44 357.07a1.16 1.16 0 1 0 1.16-1.16 1.16 1.16 0 0 0-1.16 1.16M248.15 361.64a1.16 1.16 0 1 0 1.16-1.16 1.16 1.16 0 0 0-1.16 1.16M248.28 366.28a1.16 1.16 0 1 0 1.16-1.16 1.16 1.16 0 0 0-1.16 1.16M248.34 370.92a1.16 1.16 0 1 0 1.16-1.16 1.16 1.16 0 0 0-1.16 1.16M248.36 375.57a1.16 1.16 0 1 0 1.16-1.16 1.16 1.16 0 0 0-1.16 1.16M248.36 379.72a1.16 1.16 0 1 0 1.16-1.16 1.16 1.16 0 0 0-1.16 1.16M248.34 384.37a1.16 1.16 0 1 0 1.16-1.16 1.16 1.16 0 0 0-1.16 1.16M248.28 389a1.16 1.16 0 1 0 1.16-1.16 1.16 1.16 0 0 0-1.16 1.16M248.15 393.65a1.16 1.16 0 1 0 1.16-1.16 1.16 1.16 0 0 0-1.16 1.16M247.45 398.22a1.16 1.16 0 1 0 1.16-1.16 1.16 1.16 0 0 0-1.16 1.16M244.85 402a1.16 1.16 0 1 0 1.16-1.16 1.16 1.16 0 0 0-1.16 1.16M240.76 404.08a1.16 1.16 0 1 0 1.16-1.16 1.16 1.16 0 0 0-1.16 1.16M236.15 404.56a1.16 1.16 0 1 0 1.16-1.16 1.16 1.16 0 0 0-1.16 1.16M231.52 404.89a1.16 1.16 0 1 0 1.16-1.16 1.16 1.16 0 0 0-1.16 1.16M226.88 405.11a1.16 1.16 0 1 0 1.16-1.16 1.16 1.16 0 0 0-1.16 1.16M222.23 405.21a1.16 1.16 0 1 0 1.16-1.16 1.16 1.16 0 0 0-1.16 1.16M217.59 405.22a1.16 1.16 0 1 0 1.16-1.16 1.16 1.16 0 0 0-1.16 1.16M213 405.12a1.16 1.16 0 1 0 1.16-1.16 1.16 1.16 0 0 0-1.16 1.16M208.31 404.91a1.16 1.16 0 1 0 1.16-1.16 1.16 1.16 0 0 0-1.16 1.16M203.68 404.59a1.16 1.16 0 1 0 1.16-1.16 1.16 1.16 0 0 0-1.16 1.16M199.06 404.14a1.16 1.16 0 1 0 1.16-1.16 1.16 1.16 0 0 0-1.16 1.16M194.9 402.23a1.16 1.16 0 1 0 1.16-1.16 1.16 1.16 0 0 0-1.16 1.16M192.22 398.49a1.16 1.16 0 1 0 1.16-1.16 1.16 1.16 0 0 0-1.16 1.16M191.42 393.94a1.16 1.16 0 1 0 1.16-1.16 1.16 1.16 0 0 0-1.16 1.16M191.25 389.3a1.16 1.16 0 1 0 1.16-1.16 1.16 1.16 0 0 0-1.16 1.16M191.17 384.66a1.16 1.16 0 1 0 1.16-1.16 1.16 1.16 0 0 0-1.16 1.16M191.13 380a1.16 1.16 0 1 0 1.16-1.16 1.16 1.16 0 0 0-1.16 1.16M191.13 375.37a1.16 1.16 0 1 0 1.16-1.16 1.16 1.16 0 0 0-1.16 1.16M191.17 370.73a1.16 1.16 0 1 0 1.16-1.16 1.16 1.16 0 0 0-1.16 1.16M267 350.77a1.16 1.16 0 1 0 1.16-1.16 1.16 1.16 0 0 0-1.16 1.16M267 355.32a1.16 1.16 0 1 0 1.16-1.16 1.16 1.16 0 0 0-1.16 1.16M267.05 359.87a1.16 1.16 0 1 0 1.16-1.16 1.16 1.16 0 0 0-1.16 1.16M268.08 364.29a1.16 1.16 0 1 0 1.16-1.16 1.16 1.16 0 0 0-1.16 1.16M270.62 368a1.16 1.16 0 1 0 1.16-1.16 1.16 1.16 0 0 0-1.16 1.16M274.49 370.36a1.16 1.16 0 1 0 1.16-1.16 1.16 1.16 0 0 0-1.16 1.16M278.83 371.73a1.16 1.16 0 1 0 1.16-1.16 1.16 1.16 0 0 0-1.16 1.16M283.18 373.08a1.16 1.16 0 1 0 1.16-1.16 1.16 1.16 0 0 0-1.16 1.16M287.52 374.44a1.16 1.16 0 1 0 1.16-1.16 1.16 1.16 0 0 0-1.16 1.16M291.87 375.79a1.16 1.16 0 1 0 1.16-1.16 1.16 1.16 0 0 0-1.16 1.16M300.62 379.4a1.16 1.16 0 1 0 1.16-1.16 1.16 1.16 0 0 0-1.16 1.16M305 380.77a1.16 1.16 0 1 0 1.16-1.16 1.16 1.16 0 0 0-1.16 1.16M309.31 382.13a1.16 1.16 0 1 0 1.16-1.16 1.16 1.16 0 0 0-1.16 1.16M313.65 383.49a1.16 1.16 0 1 0 1.16-1.16 1.16 1.16 0 0 0-1.16 1.16M318 384.87a1.16 1.16 0 1 0 1.16-1.16 1.16 1.16 0 0 0-1.16 1.16M321.87 387.19A1.16 1.16 0 1 0 323 386a1.16 1.16 0 0 0-1.16 1.16M324.44 390.9a1.16 1.16 0 1 0 1.16-1.16 1.16 1.16 0 0 0-1.16 1.16M325.5 395.31a1.16 1.16 0 1 0 1.16-1.16 1.16 1.16 0 0 0-1.16 1.16M325.6 399.86a1.16 1.16 0 1 0 1.16-1.16 1.16 1.16 0 0 0-1.16 1.16M325.6 404.41a1.16 1.16 0 1 0 1.16-1.16 1.16 1.16 0 0 0-1.16 1.16M327.85 350.77a1.16 1.16 0 1 1-1.16-1.16 1.16 1.16 0 0 1 1.16 1.16M327.85 355.32a1.16 1.16 0 1 1-1.16-1.16 1.16 1.16 0 0 1 1.16 1.16M327.76 359.87a1.16 1.16 0 1 1-1.16-1.16 1.16 1.16 0 0 1 1.16 1.16M326.73 364.29a1.16 1.16 0 1 1-1.16-1.16 1.16 1.16 0 0 1 1.16 1.16M324.19 368a1.16 1.16 0 1 1-1.16-1.16 1.16 1.16 0 0 1 1.16 1.16M320.32 370.36a1.16 1.16 0 1 1-1.16-1.16 1.16 1.16 0 0 1 1.16 1.16M316 371.73a1.16 1.16 0 1 1-1.16-1.16 1.16 1.16 0 0 1 1.16 1.16M311.63 373.08a1.16 1.16 0 1 1-1.16-1.16 1.16 1.16 0 0 1 1.16 1.16M307.29 374.44a1.16 1.16 0 1 1-1.16-1.16 1.16 1.16 0 0 1 1.16 1.16M302.94 375.79a1.16 1.16 0 1 1-1.16-1.16 1.16 1.16 0 0 1 1.16 1.16M298.57 377.6a1.16 1.16 0 1 1-1.16-1.16 1.16 1.16 0 0 1 1.16 1.16M294.19 379.4a1.16 1.16 0 1 1-1.16-1.16 1.16 1.16 0 0 1 1.16 1.16M289.85 380.77a1.16 1.16 0 1 1-1.16-1.16 1.16 1.16 0 0 1 1.16 1.16M285.5 382.13a1.16 1.16 0 1 1-1.16-1.16 1.16 1.16 0 0 1 1.16 1.16M281.17 383.49a1.16 1.16 0 1 1-1.16-1.16 1.16 1.16 0 0 1 1.16 1.16M276.83 384.87a1.16 1.16 0 1 1-1.16-1.16 1.16 1.16 0 0 1 1.16 1.16M272.94 387.19a1.16 1.16 0 1 1-1.16-1.16 1.16 1.16 0 0 1 1.16 1.16M270.37 390.9a1.16 1.16 0 1 1-1.16-1.16 1.16 1.16 0 0 1 1.16 1.16M269.31 395.31a1.16 1.16 0 1 1-1.16-1.16 1.16 1.16 0 0 1 1.16 1.16M269.22 399.86a1.16 1.16 0 1 1-1.16-1.16 1.16 1.16 0 0 1 1.16 1.16M269.22 404.41a1.16 1.16 0 1 1-1.16-1.16 1.16 1.16 0 0 1 1.16 1.16M344.58 361.45a1.16 1.16 0 1 0 1.16-1.16 1.16 1.16 0 0 0-1.16 1.16M344.41 366.09a1.16 1.16 0 1 0 1.16-1.16 1.16 1.16 0 0 0-1.16 1.16M345.35 356.89a1.16 1.16 0 1 0 1.16-1.16 1.16 1.16 0 0 0-1.16 1.16M348 353.15a1.16 1.16 0 1 0 1.16-1.16 1.16 1.16 0 0 0-1.16 1.16M352.18 351.23a1.16 1.16 0 1 0 1.16-1.16 1.16 1.16 0 0 0-1.16 1.16M356.8 350.77a1.16 1.16 0 1 0 1.16-1.16 1.16 1.16 0 0 0-1.16 1.16M361.43 350.43a1.16 1.16 0 1 0 1.16-1.16 1.16 1.16 0 0 0-1.16 1.16M366.06 350.19a1.16 1.16 0 1 0 1.16-1.16 1.16 1.16 0 0 0-1.16 1.16M370.71 350.07a1.16 1.16 0 1 0 1.16-1.16 1.16 1.16 0 0 0-1.16 1.16M375.35 350.08a1.16 1.16 0 1 0 1.16-1.16 1.16 1.16 0 0 0-1.16 1.16M380 350.2a1.16 1.16 0 1 0 1.16-1.16 1.16 1.16 0 0 0-1.16 1.16M384.63 350.44a1.16 1.16 0 1 0 1.16-1.16 1.16 1.16 0 0 0-1.16 1.16M389.26 350.79a1.16 1.16 0 1 0 1.16-1.16 1.16 1.16 0 0 0-1.16 1.16M393.88 351.27a1.16 1.16 0 1 0 1.16-1.16 1.16 1.16 0 0 0-1.16 1.16M398 353.29a1.16 1.16 0 1 0 1.16-1.16 1.16 1.16 0 0 0-1.16 1.16M400.61 357.07a1.16 1.16 0 1 0 1.16-1.16 1.16 1.16 0 0 0-1.16 1.16M401.32 361.64a1.16 1.16 0 1 0 1.16-1.16 1.16 1.16 0 0 0-1.16 1.16M401.44 366.28a1.16 1.16 0 1 0 1.16-1.16 1.16 1.16 0 0 0-1.16 1.16M401.5 370.92a1.16 1.16 0 1 0 1.16-1.16 1.16 1.16 0 0 0-1.16 1.16M401.52 375.57a1.16 1.16 0 1 0 1.16-1.16 1.16 1.16 0 0 0-1.16 1.16M401.52 379.72a1.16 1.16 0 1 0 1.16-1.16 1.16 1.16 0 0 0-1.16 1.16M401.5 384.37a1.16 1.16 0 1 0 1.16-1.16 1.16 1.16 0 0 0-1.16 1.16M401.44 389a1.16 1.16 0 1 0 1.16-1.16 1.16 1.16 0 0 0-1.16 1.16M401.32 393.65a1.16 1.16 0 1 0 1.16-1.16 1.16 1.16 0 0 0-1.16 1.16M400.61 398.22a1.16 1.16 0 1 0 1.16-1.16 1.16 1.16 0 0 0-1.16 1.16M398 402a1.16 1.16 0 1 0 1.16-1.16A1.16 1.16 0 0 0 398 402M393.93 404.08a1.16 1.16 0 1 0 1.16-1.16 1.16 1.16 0 0 0-1.16 1.16M389.31 404.56a1.16 1.16 0 1 0 1.16-1.16 1.16 1.16 0 0 0-1.16 1.16M384.68 404.89a1.16 1.16 0 1 0 1.16-1.16 1.16 1.16 0 0 0-1.16 1.16M380 405.11a1.16 1.16 0 1 0 1.16-1.16 1.16 1.16 0 0 0-1.16 1.16M375.4 405.21a1.16 1.16 0 1 0 1.16-1.16 1.16 1.16 0 0 0-1.16 1.16M370.76 405.22a1.16 1.16 0 1 0 1.16-1.16 1.16 1.16 0 0 0-1.16 1.16M366.12 405.12a1.16 1.16 0 1 0 1.16-1.16 1.16 1.16 0 0 0-1.16 1.16M361.48 404.91a1.16 1.16 0 1 0 1.16-1.16 1.16 1.16 0 0 0-1.16 1.16M356.84 404.59a1.16 1.16 0 1 0 1.16-1.16 1.16 1.16 0 0 0-1.16 1.16M352.22 404.14a1.16 1.16 0 1 0 1.16-1.16 1.16 1.16 0 0 0-1.16 1.16M348.06 402.23a1.16 1.16 0 1 0 1.16-1.16 1.16 1.16 0 0 0-1.16 1.16M345.38 398.49a1.16 1.16 0 1 0 1.16-1.16 1.16 1.16 0 0 0-1.16 1.16M344.58 393.94a1.16 1.16 0 1 0 1.16-1.16 1.16 1.16 0 0 0-1.16 1.16M344.41 389.3a1.16 1.16 0 1 0 1.16-1.16 1.16 1.16 0 0 0-1.16 1.16M344.33 384.66a1.16 1.16 0 1 0 1.16-1.16 1.16 1.16 0 0 0-1.16 1.16M344.3 380a1.16 1.16 0 1 0 1.16-1.16 1.16 1.16 0 0 0-1.16 1.16M344.3 375.37a1.16 1.16 0 1 0 1.16-1.16 1.16 1.16 0 0 0-1.16 1.16M344.33 370.73a1.16 1.16 0 1 0 1.16-1.16 1.16 1.16 0 0 0-1.16 1.16M421.81 404a1.16 1.16 0 1 0 1.16-1.16 1.16 1.16 0 0 0-1.16 1.16M421.81 399.37a1.16 1.16 0 1 0 1.16-1.16 1.16 1.16 0 0 0-1.16 1.16M421.81 394.73a1.16 1.16 0 1 0 1.16-1.16 1.16 1.16 0 0 0-1.16 1.16M421.81 390.08a1.16 1.16 0 1 0 1.16-1.16 1.16 1.16 0 0 0-1.16 1.16M421.81 385.44a1.16 1.16 0 1 0 1.16-1.16 1.16 1.16 0 0 0-1.16 1.16M421.81 380.8a1.16 1.16 0 1 0 1.16-1.16 1.16 1.16 0 0 0-1.16 1.16M421.81 376.15A1.16 1.16 0 1 0 423 375a1.16 1.16 0 0 0-1.16 1.16M421.81 371.51a1.16 1.16 0 1 0 1.16-1.16 1.16 1.16 0 0 0-1.16 1.16M421.81 366.87a1.16 1.16 0 1 0 1.16-1.16 1.16 1.16 0 0 0-1.16 1.16M421.81 362.22a1.16 1.16 0 1 0 1.16-1.16 1.16 1.16 0 0 0-1.16 1.16M421.81 357.58a1.16 1.16 0 1 0 1.16-1.16 1.16 1.16 0 0 0-1.16 1.16M421.81 352.94a1.16 1.16 0 1 0 1.16-1.16 1.16 1.16 0 0 0-1.16 1.16M425.67 351.72a1.16 1.16 0 1 0 1.16-1.16 1.16 1.16 0 0 0-1.16 1.16M430.29 351.23a1.16 1.16 0 1 0 1.16-1.16 1.16 1.16 0 0 0-1.16 1.16M434.91 350.8a1.16 1.16 0 1 0 1.16-1.16 1.16 1.16 0 0 0-1.16 1.16M439.54 350.45a1.16 1.16 0 1 0 1.16-1.16 1.16 1.16 0 0 0-1.16 1.16M444.18 350.2a1.16 1.16 0 1 0 1.16-1.16 1.16 1.16 0 0 0-1.16 1.16M448.82 350.07a1.16 1.16 0 1 0 1.16-1.16 1.16 1.16 0 0 0-1.16 1.16M453.46 350.09a1.16 1.16 0 1 0 1.16-1.16 1.16 1.16 0 0 0-1.16 1.16M458.1 350.22a1.16 1.16 0 1 0 1.16-1.16 1.16 1.16 0 0 0-1.16 1.16M462.74 350.48a1.16 1.16 0 1 0 1.16-1.16 1.16 1.16 0 0 0-1.16 1.16M467.37 350.84a1.16 1.16 0 1 0 1.16-1.16 1.16 1.16 0 0 0-1.16 1.16M472 351.39a1.16 1.16 0 1 0 1.16-1.16 1.16 1.16 0 0 0-1.16 1.16M475.94 353.7a1.16 1.16 0 1 0 1.16-1.16 1.16 1.16 0 0 0-1.16 1.16M478.32 357.63a1.16 1.16 0 1 0 1.16-1.16 1.16 1.16 0 0 0-1.16 1.16M478.86 362.23a1.16 1.16 0 1 0 1.16-1.16 1.16 1.16 0 0 0-1.16 1.16M479 366.87a1.16 1.16 0 1 0 1.16-1.16 1.16 1.16 0 0 0-1.16 1.16M479 371.51a1.16 1.16 0 1 0 1.16-1.16 1.16 1.16 0 0 0-1.16 1.16M479 376.15a1.16 1.16 0 1 0 1.2-1.15 1.16 1.16 0 0 0-1.16 1.16M479 380.8a1.16 1.16 0 1 0 1.16-1.16 1.16 1.16 0 0 0-1.16 1.16M479 385.44a1.16 1.16 0 1 0 1.16-1.16 1.16 1.16 0 0 0-1.16 1.16M479 390.08a1.16 1.16 0 1 0 1.16-1.16 1.16 1.16 0 0 0-1.16 1.16M479 394.73a1.16 1.16 0 1 0 1.16-1.16 1.16 1.16 0 0 0-1.16 1.16M479 399.37a1.16 1.16 0 1 0 1.16-1.16 1.16 1.16 0 0 0-1.16 1.16M479 404a1.16 1.16 0 1 0 1.16-1.16A1.16 1.16 0 0 0 479 404" transform="translate(-95.85 -348.9)"/></svg>