<?xml version="1.0" encoding="utf-8"?>
<!-- Generator: Adobe Illustrator 16.0.0, SVG Export Plug-In . SVG Version: 6.00 Build 0)  -->
<!DOCTYPE svg PUBLIC "-//W3C//DTD SVG 1.1//EN" "http://www.w3.org/Graphics/SVG/1.1/DTD/svg11.dtd">
<svg version="1.1" id="Layer_1" xmlns="http://www.w3.org/2000/svg" xmlns:xlink="http://www.w3.org/1999/xlink" x="0px" y="0px"
	 width="9px" height="27px" viewBox="0 0 9 27" enable-background="new 0 0 9 27" xml:space="preserve">
<path fill="#FFFFFF" d="M9,4.5C9,6.985,6.985,9,4.5,9l0,0C2.015,9,0,6.985,0,4.5l0,0C0,2.015,2.015,0,4.5,0l0,0
	C6.985,0,9,2.015,9,4.5L9,4.5z"/>
<path fill="#808080" d="M9,13.5C9,15.985,6.985,18,4.5,18l0,0C2.015,18,0,15.985,0,13.5l0,0C0,11.015,2.015,9,4.5,9l0,0
	C6.985,9,9,11.015,9,13.5L9,13.5z"/>
<path fill="#CCCCCC" d="M9,22.5C9,24.985,6.985,27,4.5,27l0,0C2.015,27,0,24.985,0,22.5l0,0C0,20.015,2.015,18,4.5,18l0,0
	C6.985,18,9,20.015,9,22.5L9,22.5z"/>
</svg>
