<?xml version="1.0" encoding="utf-8"?>
<!-- Generator: Adobe Illustrator 15.1.0, SVG Export Plug-In . SVG Version: 6.00 Build 0)  -->
<!DOCTYPE svg PUBLIC "-//W3C//DTD SVG 1.1//EN" "http://www.w3.org/Graphics/SVG/1.1/DTD/svg11.dtd">
<svg version="1.1" id="Layer_1" xmlns="http://www.w3.org/2000/svg" xmlns:xlink="http://www.w3.org/1999/xlink" x="0px" y="0px"
	 width="30px" height="27.534px" viewBox="4.976 5.911 30 27.534" enable-background="new 4.976 5.911 30 27.534"
	 xml:space="preserve">
<g>
	<path fill="#FFFFFF" d="M4.995,6.475c0,0.311,0.252,0.563,0.563,0.563c0.311,0,0.564-0.252,0.564-0.563
		c0-0.312-0.253-0.564-0.564-0.564C5.247,5.911,4.995,6.163,4.995,6.475"/>
	<path fill="#FFFFFF" d="M4.995,8.708c0,0.311,0.252,0.564,0.563,0.564c0.311,0,0.564-0.253,0.564-0.564S5.869,8.146,5.558,8.146
		C5.247,8.146,4.995,8.398,4.995,8.708"/>
	<path fill="#FFFFFF" d="M5.034,10.963c0,0.311,0.252,0.563,0.563,0.563s0.564-0.252,0.564-0.563c0-0.311-0.253-0.564-0.564-0.564
		C5.306,10.379,5.034,10.633,5.034,10.963"/>
	<path fill="#FFFFFF" d="M5.539,13.139c0,0.311,0.252,0.563,0.564,0.563c0.311,0,0.563-0.252,0.563-0.563
		c0-0.312-0.252-0.564-0.563-0.564C5.81,12.556,5.539,12.808,5.539,13.139"/>
	<path fill="#FFFFFF" d="M6.801,14.965c0,0.311,0.252,0.563,0.563,0.563c0.312,0,0.564-0.252,0.564-0.563
		c0-0.311-0.252-0.563-0.564-0.563C7.054,14.402,6.801,14.655,6.801,14.965"/>
	<path fill="#FFFFFF" d="M8.705,16.112c0,0.311,0.253,0.563,0.564,0.563c0.311,0,0.563-0.252,0.563-0.563
		c0-0.311-0.252-0.564-0.563-0.564C8.958,15.548,8.705,15.801,8.705,16.112"/>
	<path fill="#FFFFFF" d="M10.843,16.792c0,0.312,0.252,0.564,0.564,0.564c0.311,0,0.563-0.252,0.563-0.564
		c0-0.311-0.252-0.563-0.563-0.563C11.096,16.229,10.843,16.481,10.843,16.792"/>
	<path fill="#FFFFFF" d="M12.981,17.453c0,0.311,0.252,0.563,0.563,0.563s0.564-0.252,0.564-0.563c0-0.311-0.253-0.564-0.564-0.564
		S12.981,17.142,12.981,17.453"/>
	<path fill="#FFFFFF" d="M15.118,18.132c0,0.312,0.252,0.564,0.564,0.564c0.311,0,0.563-0.252,0.563-0.564
		c0-0.311-0.252-0.563-0.563-0.563C15.37,17.55,15.118,17.802,15.118,18.132"/>
	<path fill="#FFFFFF" d="M17.255,18.793c0,0.311,0.252,0.563,0.563,0.563c0.312,0,0.564-0.252,0.564-0.563s-0.252-0.564-0.564-0.564
		C17.508,18.21,17.255,18.483,17.255,18.793"/>
	<path fill="#FFFFFF" d="M21.551,20.562c0,0.311,0.252,0.564,0.562,0.564s0.563-0.254,0.563-0.564s-0.253-0.563-0.563-0.563
		C21.822,19.999,21.551,20.251,21.551,20.562"/>
	<path fill="#FFFFFF" d="M23.706,21.242c0,0.312,0.252,0.563,0.562,0.563s0.565-0.252,0.565-0.563s-0.255-0.564-0.565-0.564
		S23.706,20.931,23.706,21.242"/>
	<path fill="#FFFFFF" d="M25.824,21.903c0,0.311,0.254,0.562,0.565,0.562c0.311,0,0.562-0.252,0.562-0.562S26.7,21.34,26.39,21.34
		C26.098,21.34,25.824,21.593,25.824,21.903"/>
	<path fill="#FFFFFF" d="M27.962,22.583c0,0.311,0.253,0.562,0.563,0.562s0.562-0.252,0.562-0.562s-0.252-0.563-0.562-0.563
		C28.233,22.02,27.962,22.272,27.962,22.583"/>
	<path fill="#FFFFFF" d="M30.1,23.263c0,0.311,0.253,0.562,0.563,0.562s0.562-0.252,0.562-0.562c0-0.312-0.252-0.563-0.562-0.563
		S30.1,22.951,30.1,23.263"/>
	<path fill="#FFFFFF" d="M32.024,24.408c0,0.311,0.252,0.564,0.562,0.564s0.563-0.254,0.563-0.564s-0.253-0.563-0.563-0.563
		C32.276,23.825,32.024,24.078,32.024,24.408"/>
	<path fill="#FFFFFF" d="M33.286,26.235c0,0.312,0.252,0.564,0.563,0.564c0.311,0,0.562-0.252,0.562-0.564
		c0-0.311-0.252-0.563-0.562-0.563C33.538,25.652,33.286,25.905,33.286,26.235"/>
	<path fill="#FFFFFF" d="M33.791,28.393c0,0.311,0.252,0.562,0.562,0.562c0.312,0,0.563-0.252,0.563-0.562s-0.252-0.563-0.563-0.563
		C34.062,27.829,33.791,28.082,33.791,28.393"/>
	<path fill="#FFFFFF" d="M33.85,30.646c0,0.311,0.252,0.563,0.562,0.563s0.563-0.253,0.563-0.563s-0.253-0.565-0.563-0.565
		C34.102,30.062,33.85,30.316,33.85,30.646"/>
	<path fill="#FFFFFF" d="M33.85,32.882c0,0.311,0.252,0.562,0.562,0.562s0.563-0.252,0.563-0.562c0-0.312-0.253-0.563-0.563-0.563
		C34.102,32.299,33.85,32.57,33.85,32.882"/>
	<path fill="#FFFFFF" d="M34.956,6.475c0,0.311-0.253,0.563-0.563,0.563S33.83,6.785,33.83,6.475c0-0.312,0.252-0.564,0.562-0.564
		S34.956,6.163,34.956,6.475"/>
	<path fill="#FFFFFF" d="M34.956,8.708c0,0.311-0.253,0.564-0.563,0.564S33.83,9.019,33.83,8.708s0.252-0.563,0.562-0.563
		S34.956,8.398,34.956,8.708"/>
	<path fill="#FFFFFF" d="M34.917,10.963c0,0.311-0.252,0.563-0.563,0.563c-0.311,0-0.562-0.252-0.562-0.563
		c0-0.311,0.252-0.564,0.562-0.564C34.665,10.398,34.917,10.633,34.917,10.963"/>
	<path fill="#FFFFFF" d="M34.412,13.139c0,0.311-0.252,0.563-0.562,0.563c-0.312,0-0.563-0.252-0.563-0.563
		c0-0.312,0.252-0.564,0.563-0.564C34.16,12.556,34.412,12.808,34.412,13.139"/>
	<path fill="#FFFFFF" d="M33.15,14.965c0,0.311-0.253,0.563-0.563,0.563s-0.562-0.252-0.562-0.563c0-0.311,0.252-0.563,0.562-0.563
		S33.15,14.655,33.15,14.965"/>
	<path fill="#FFFFFF" d="M31.245,16.112c0,0.311-0.252,0.563-0.562,0.563s-0.563-0.252-0.563-0.563c0-0.311,0.253-0.564,0.563-0.564
		S31.245,15.801,31.245,16.112"/>
	<path fill="#FFFFFF" d="M29.107,16.792c0,0.312-0.252,0.564-0.562,0.564c-0.312,0-0.563-0.252-0.563-0.564
		c0-0.311,0.252-0.563,0.563-0.563C28.855,16.229,29.107,16.481,29.107,16.792"/>
	<path fill="#FFFFFF" d="M26.972,17.453c0,0.311-0.252,0.563-0.563,0.563c-0.311,0-0.564-0.252-0.564-0.563
		c0-0.311,0.254-0.564,0.564-0.564C26.72,16.889,26.972,17.142,26.972,17.453"/>
	<path fill="#FFFFFF" d="M24.834,18.132c0,0.312-0.255,0.564-0.565,0.564s-0.562-0.252-0.562-0.564c0-0.311,0.252-0.563,0.562-0.563
		C24.579,17.55,24.834,17.802,24.834,18.132"/>
	<path fill="#FFFFFF" d="M22.696,18.793c0,0.311-0.253,0.563-0.563,0.563s-0.562-0.252-0.562-0.563s0.252-0.564,0.562-0.564
		C22.443,18.21,22.696,18.483,22.696,18.793"/>
	<path fill="#FFFFFF" d="M20.539,19.688c0,0.311-0.252,0.563-0.563,0.563c-0.311,0-0.563-0.252-0.563-0.563
		c0-0.312,0.252-0.564,0.563-0.564C20.287,19.104,20.539,19.356,20.539,19.688"/>
	<path fill="#FFFFFF" d="M18.402,20.562c0,0.311-0.252,0.564-0.564,0.564c-0.311,0-0.563-0.254-0.563-0.564s0.252-0.563,0.563-0.563
		C18.13,19.999,18.402,20.251,18.402,20.562"/>
	<path fill="#FFFFFF" d="M16.264,21.242c0,0.312-0.252,0.563-0.563,0.563c-0.312,0-0.564-0.252-0.564-0.563s0.252-0.564,0.564-0.564
		C15.993,20.678,16.264,20.931,16.264,21.242"/>
	<path fill="#FFFFFF" d="M14.127,21.903c0,0.311-0.253,0.562-0.564,0.562S13,22.214,13,21.903s0.252-0.563,0.563-0.563
		S14.127,21.593,14.127,21.903"/>
	<path fill="#FFFFFF" d="M11.99,22.583c0,0.311-0.252,0.562-0.563,0.562c-0.312,0-0.564-0.252-0.564-0.562s0.252-0.563,0.564-0.563
		C11.737,22.02,11.99,22.272,11.99,22.583"/>
	<path fill="#FFFFFF" d="M9.852,23.263c0,0.311-0.252,0.562-0.563,0.562c-0.311,0-0.563-0.252-0.563-0.562
		c0-0.312,0.252-0.563,0.563-0.563C9.6,22.699,9.852,22.951,9.852,23.263"/>
	<path fill="#FFFFFF" d="M7.948,24.408c0,0.311-0.252,0.564-0.564,0.564c-0.311,0-0.563-0.254-0.563-0.564s0.252-0.563,0.563-0.563
		C7.676,23.825,7.948,24.078,7.948,24.408"/>
	<path fill="#FFFFFF" d="M6.666,26.235c0,0.312-0.252,0.564-0.563,0.564c-0.312,0-0.564-0.252-0.564-0.564
		c0-0.311,0.252-0.563,0.564-0.563C6.413,25.652,6.666,25.905,6.666,26.235"/>
	<path fill="#FFFFFF" d="M6.161,28.393c0,0.311-0.253,0.562-0.564,0.562s-0.563-0.252-0.563-0.562s0.252-0.563,0.563-0.563
		C5.888,27.829,6.161,28.082,6.161,28.393"/>
	<path fill="#FFFFFF" d="M6.103,30.646c0,0.311-0.253,0.563-0.564,0.563c-0.311,0-0.563-0.253-0.563-0.563s0.252-0.565,0.563-0.565
		C5.849,30.062,6.103,30.316,6.103,30.646"/>
	<path fill="#FFFFFF" d="M6.103,32.882c0,0.311-0.253,0.562-0.564,0.562c-0.311,0-0.563-0.252-0.563-0.562
		c0-0.312,0.252-0.563,0.563-0.563C5.849,32.299,6.103,32.57,6.103,32.882"/>
</g>
</svg>
