<svg id="Layer_1" data-name="Layer 1" xmlns="http://www.w3.org/2000/svg" viewBox="0 0 385.51 57.78"><defs><style>.cls-1{fill:#222221;}</style></defs><title>moxon_logo_outlined</title><path class="cls-1" d="M95.85,405.51A1.16,1.16,0,1,0,97,404.36a1.16,1.16,0,0,0-1.16,1.16" transform="translate(-95.85 -348.9)"/><path class="cls-1" d="M95.85,400.88A1.16,1.16,0,1,0,97,399.72a1.16,1.16,0,0,0-1.16,1.16" transform="translate(-95.85 -348.9)"/><path class="cls-1" d="M95.85,396.23A1.16,1.16,0,1,0,97,395.07a1.16,1.16,0,0,0-1.16,1.16" transform="translate(-95.85 -348.9)"/><path class="cls-1" d="M95.85,391.59A1.16,1.16,0,1,0,97,390.43a1.16,1.16,0,0,0-1.16,1.16" transform="translate(-95.85 -348.9)"/><path class="cls-1" d="M95.85,386.94A1.16,1.16,0,1,0,97,385.79a1.16,1.16,0,0,0-1.16,1.16" transform="translate(-95.85 -348.9)"/><path class="cls-1" d="M95.85,382.3A1.16,1.16,0,1,0,97,381.14a1.16,1.16,0,0,0-1.16,1.16" transform="translate(-95.85 -348.9)"/><path class="cls-1" d="M95.85,377.67A1.16,1.16,0,1,0,97,376.51a1.16,1.16,0,0,0-1.16,1.16" transform="translate(-95.85 -348.9)"/><path class="cls-1" d="M95.86,373A1.16,1.16,0,1,0,97,371.86,1.16,1.16,0,0,0,95.86,373" transform="translate(-95.85 -348.9)"/><path class="cls-1" d="M95.9,368.37a1.16,1.16,0,1,0,1.16-1.16,1.16,1.16,0,0,0-1.16,1.16" transform="translate(-95.85 -348.9)"/><path class="cls-1" d="M96,363.73a1.16,1.16,0,1,0,1.16-1.16A1.16,1.16,0,0,0,96,363.73" transform="translate(-95.85 -348.9)"/><path class="cls-1" d="M96.23,359.09a1.16,1.16,0,1,0,1.16-1.16,1.16,1.16,0,0,0-1.16,1.16" transform="translate(-95.85 -348.9)"/><path class="cls-1" d="M97.61,354.71a1.16,1.16,0,1,0,1.16-1.16,1.16,1.16,0,0,0-1.16,1.16" transform="translate(-95.85 -348.9)"/><path class="cls-1" d="M100.87,351.46A1.16,1.16,0,1,0,102,350.3a1.16,1.16,0,0,0-1.16,1.16" transform="translate(-95.85 -348.9)"/><path class="cls-1" d="M105.32,350.32a1.16,1.16,0,1,0,1.16-1.16,1.16,1.16,0,0,0-1.16,1.16" transform="translate(-95.85 -348.9)"/><path class="cls-1" d="M110,350.11a1.16,1.16,0,1,0,1.16-1.16,1.16,1.16,0,0,0-1.16,1.16" transform="translate(-95.85 -348.9)"/><path class="cls-1" d="M114.6,350.06a1.16,1.16,0,1,0,1.16-1.16,1.16,1.16,0,0,0-1.16,1.16" transform="translate(-95.85 -348.9)"/><path class="cls-1" d="M119.24,350.11A1.16,1.16,0,1,0,120.4,349a1.16,1.16,0,0,0-1.16,1.16" transform="translate(-95.85 -348.9)"/><path class="cls-1" d="M123.88,350.34a1.16,1.16,0,1,0,1.16-1.16,1.16,1.16,0,0,0-1.16,1.16" transform="translate(-95.85 -348.9)"/><path class="cls-1" d="M128.29,351.61a1.16,1.16,0,1,0,1.16-1.16,1.16,1.16,0,0,0-1.16,1.16" transform="translate(-95.85 -348.9)"/><path class="cls-1" d="M131.5,354.9a1.16,1.16,0,1,0,1.16-1.16,1.16,1.16,0,0,0-1.16,1.16" transform="translate(-95.85 -348.9)"/><path class="cls-1" d="M133.53,359.27a1.16,1.16,0,1,0,1.16-1.16,1.16,1.16,0,0,0-1.16,1.16" transform="translate(-95.85 -348.9)"/><path class="cls-1" d="M133.53,363.91a1.16,1.16,0,1,0,1.16-1.16,1.16,1.16,0,0,0-1.16,1.16" transform="translate(-95.85 -348.9)"/><path class="cls-1" d="M133.53,368.55a1.16,1.16,0,1,0,1.16-1.16,1.16,1.16,0,0,0-1.16,1.16" transform="translate(-95.85 -348.9)"/><path class="cls-1" d="M133.53,373.2a1.16,1.16,0,1,0,1.16-1.16,1.16,1.16,0,0,0-1.16,1.16" transform="translate(-95.85 -348.9)"/><path class="cls-1" d="M133.53,377.84a1.16,1.16,0,1,0,1.16-1.16,1.16,1.16,0,0,0-1.16,1.16" transform="translate(-95.85 -348.9)"/><path class="cls-1" d="M133.53,382.48a1.16,1.16,0,1,0,1.16-1.16,1.16,1.16,0,0,0-1.16,1.16" transform="translate(-95.85 -348.9)"/><path class="cls-1" d="M133.53,387.13a1.16,1.16,0,1,0,1.16-1.16,1.16,1.16,0,0,0-1.16,1.16" transform="translate(-95.85 -348.9)"/><path class="cls-1" d="M135.58,354.86a1.16,1.16,0,1,0,1.16-1.16,1.16,1.16,0,0,0-1.16,1.16" transform="translate(-95.85 -348.9)"/><path class="cls-1" d="M138.81,351.58a1.16,1.16,0,1,0,1.16-1.16,1.16,1.16,0,0,0-1.16,1.16" transform="translate(-95.85 -348.9)"/><path class="cls-1" d="M143.23,350.34a1.16,1.16,0,1,0,1.16-1.16,1.16,1.16,0,0,0-1.16,1.16" transform="translate(-95.85 -348.9)"/><path class="cls-1" d="M147.87,350.11A1.16,1.16,0,1,0,149,349a1.16,1.16,0,0,0-1.16,1.16" transform="translate(-95.85 -348.9)"/><path class="cls-1" d="M152.51,350.06a1.16,1.16,0,1,0,1.16-1.16,1.16,1.16,0,0,0-1.16,1.16" transform="translate(-95.85 -348.9)"/><path class="cls-1" d="M157.15,350.11a1.16,1.16,0,1,0,1.16-1.16,1.16,1.16,0,0,0-1.16,1.16" transform="translate(-95.85 -348.9)"/><path class="cls-1" d="M161.79,350.32a1.16,1.16,0,1,0,1.16-1.16,1.16,1.16,0,0,0-1.16,1.16" transform="translate(-95.85 -348.9)"/><path class="cls-1" d="M166.24,351.48a1.16,1.16,0,1,0,1.16-1.16,1.16,1.16,0,0,0-1.16,1.16" transform="translate(-95.85 -348.9)"/><path class="cls-1" d="M169.51,354.71a1.16,1.16,0,1,0,1.16-1.16,1.16,1.16,0,0,0-1.16,1.16" transform="translate(-95.85 -348.9)"/><path class="cls-1" d="M170.91,359.09a1.16,1.16,0,1,0,1.16-1.16,1.16,1.16,0,0,0-1.16,1.16" transform="translate(-95.85 -348.9)"/><path class="cls-1" d="M171.1,363.73a1.16,1.16,0,1,0,1.16-1.16,1.16,1.16,0,0,0-1.16,1.16" transform="translate(-95.85 -348.9)"/><path class="cls-1" d="M171.17,368.37a1.16,1.16,0,1,0,1.16-1.16,1.16,1.16,0,0,0-1.16,1.16" transform="translate(-95.85 -348.9)"/><path class="cls-1" d="M171.21,373a1.16,1.16,0,1,0,1.16-1.16,1.16,1.16,0,0,0-1.16,1.16" transform="translate(-95.85 -348.9)"/><path class="cls-1" d="M171.21,377.66a1.16,1.16,0,1,0,1.16-1.16,1.16,1.16,0,0,0-1.16,1.16" transform="translate(-95.85 -348.9)"/><path class="cls-1" d="M171.21,382.3a1.16,1.16,0,1,0,1.16-1.16,1.16,1.16,0,0,0-1.16,1.16" transform="translate(-95.85 -348.9)"/><path class="cls-1" d="M171.21,386.94a1.16,1.16,0,1,0,1.16-1.16,1.16,1.16,0,0,0-1.16,1.16" transform="translate(-95.85 -348.9)"/><path class="cls-1" d="M171.21,391.59a1.16,1.16,0,1,0,1.16-1.16,1.16,1.16,0,0,0-1.16,1.16" transform="translate(-95.85 -348.9)"/><path class="cls-1" d="M171.21,396.23a1.16,1.16,0,1,0,1.16-1.16,1.16,1.16,0,0,0-1.16,1.16" transform="translate(-95.85 -348.9)"/><path class="cls-1" d="M171.21,400.88a1.16,1.16,0,1,0,1.16-1.16,1.16,1.16,0,0,0-1.16,1.16" transform="translate(-95.85 -348.9)"/><path class="cls-1" d="M171.21,405.52a1.16,1.16,0,1,0,1.16-1.16,1.16,1.16,0,0,0-1.16,1.16" transform="translate(-95.85 -348.9)"/><path class="cls-1" d="M191.41,361.45a1.16,1.16,0,1,0,1.16-1.16,1.16,1.16,0,0,0-1.16,1.16" transform="translate(-95.85 -348.9)"/><path class="cls-1" d="M191.24,366.09a1.16,1.16,0,1,0,1.16-1.16,1.16,1.16,0,0,0-1.16,1.16" transform="translate(-95.85 -348.9)"/><path class="cls-1" d="M192.18,356.89a1.16,1.16,0,1,0,1.16-1.16,1.16,1.16,0,0,0-1.16,1.16" transform="translate(-95.85 -348.9)"/><path class="cls-1" d="M194.85,353.15A1.16,1.16,0,1,0,196,352a1.16,1.16,0,0,0-1.16,1.16" transform="translate(-95.85 -348.9)"/><path class="cls-1" d="M199,351.23a1.16,1.16,0,1,0,1.16-1.16,1.16,1.16,0,0,0-1.16,1.16" transform="translate(-95.85 -348.9)"/><path class="cls-1" d="M203.63,350.77a1.16,1.16,0,1,0,1.16-1.16,1.16,1.16,0,0,0-1.16,1.16" transform="translate(-95.85 -348.9)"/><path class="cls-1" d="M208.26,350.43a1.16,1.16,0,1,0,1.16-1.16,1.16,1.16,0,0,0-1.16,1.16" transform="translate(-95.85 -348.9)"/><path class="cls-1" d="M212.9,350.19a1.16,1.16,0,1,0,1.16-1.16,1.16,1.16,0,0,0-1.16,1.16" transform="translate(-95.85 -348.9)"/><path class="cls-1" d="M217.54,350.07a1.16,1.16,0,1,0,1.16-1.16,1.16,1.16,0,0,0-1.16,1.16" transform="translate(-95.85 -348.9)"/><path class="cls-1" d="M222.19,350.08a1.16,1.16,0,1,0,1.16-1.16,1.16,1.16,0,0,0-1.16,1.16" transform="translate(-95.85 -348.9)"/><path class="cls-1" d="M226.83,350.2A1.16,1.16,0,1,0,228,349a1.16,1.16,0,0,0-1.16,1.16" transform="translate(-95.85 -348.9)"/><path class="cls-1" d="M231.46,350.44a1.16,1.16,0,1,0,1.16-1.16,1.16,1.16,0,0,0-1.16,1.16" transform="translate(-95.85 -348.9)"/><path class="cls-1" d="M236.09,350.79a1.16,1.16,0,1,0,1.16-1.16,1.16,1.16,0,0,0-1.16,1.16" transform="translate(-95.85 -348.9)"/><path class="cls-1" d="M240.71,351.27a1.16,1.16,0,1,0,1.16-1.16,1.16,1.16,0,0,0-1.16,1.16" transform="translate(-95.85 -348.9)"/><path class="cls-1" d="M244.82,353.29a1.16,1.16,0,1,0,1.16-1.16,1.16,1.16,0,0,0-1.16,1.16" transform="translate(-95.85 -348.9)"/><path class="cls-1" d="M247.44,357.07a1.16,1.16,0,1,0,1.16-1.16,1.16,1.16,0,0,0-1.16,1.16" transform="translate(-95.85 -348.9)"/><path class="cls-1" d="M248.15,361.64a1.16,1.16,0,1,0,1.16-1.16,1.16,1.16,0,0,0-1.16,1.16" transform="translate(-95.85 -348.9)"/><path class="cls-1" d="M248.28,366.28a1.16,1.16,0,1,0,1.16-1.16,1.16,1.16,0,0,0-1.16,1.16" transform="translate(-95.85 -348.9)"/><path class="cls-1" d="M248.34,370.92a1.16,1.16,0,1,0,1.16-1.16,1.16,1.16,0,0,0-1.16,1.16" transform="translate(-95.85 -348.9)"/><path class="cls-1" d="M248.36,375.57a1.16,1.16,0,1,0,1.16-1.16,1.16,1.16,0,0,0-1.16,1.16" transform="translate(-95.85 -348.9)"/><path class="cls-1" d="M248.36,379.72a1.16,1.16,0,1,0,1.16-1.16,1.16,1.16,0,0,0-1.16,1.16" transform="translate(-95.85 -348.9)"/><path class="cls-1" d="M248.34,384.37a1.16,1.16,0,1,0,1.16-1.16,1.16,1.16,0,0,0-1.16,1.16" transform="translate(-95.85 -348.9)"/><path class="cls-1" d="M248.28,389a1.16,1.16,0,1,0,1.16-1.16,1.16,1.16,0,0,0-1.16,1.16" transform="translate(-95.85 -348.9)"/><path class="cls-1" d="M248.15,393.65a1.16,1.16,0,1,0,1.16-1.16,1.16,1.16,0,0,0-1.16,1.16" transform="translate(-95.85 -348.9)"/><path class="cls-1" d="M247.45,398.22a1.16,1.16,0,1,0,1.16-1.16,1.16,1.16,0,0,0-1.16,1.16" transform="translate(-95.85 -348.9)"/><path class="cls-1" d="M244.85,402a1.16,1.16,0,1,0,1.16-1.16,1.16,1.16,0,0,0-1.16,1.16" transform="translate(-95.85 -348.9)"/><path class="cls-1" d="M240.76,404.08a1.16,1.16,0,1,0,1.16-1.16,1.16,1.16,0,0,0-1.16,1.16" transform="translate(-95.85 -348.9)"/><path class="cls-1" d="M236.15,404.56a1.16,1.16,0,1,0,1.16-1.16,1.16,1.16,0,0,0-1.16,1.16" transform="translate(-95.85 -348.9)"/><path class="cls-1" d="M231.52,404.89a1.16,1.16,0,1,0,1.16-1.16,1.16,1.16,0,0,0-1.16,1.16" transform="translate(-95.85 -348.9)"/><path class="cls-1" d="M226.88,405.11a1.16,1.16,0,1,0,1.16-1.16,1.16,1.16,0,0,0-1.16,1.16" transform="translate(-95.85 -348.9)"/><path class="cls-1" d="M222.23,405.21a1.16,1.16,0,1,0,1.16-1.16,1.16,1.16,0,0,0-1.16,1.16" transform="translate(-95.85 -348.9)"/><path class="cls-1" d="M217.59,405.22a1.16,1.16,0,1,0,1.16-1.16,1.16,1.16,0,0,0-1.16,1.16" transform="translate(-95.85 -348.9)"/><path class="cls-1" d="M213,405.12a1.16,1.16,0,1,0,1.16-1.16,1.16,1.16,0,0,0-1.16,1.16" transform="translate(-95.85 -348.9)"/><path class="cls-1" d="M208.31,404.91a1.16,1.16,0,1,0,1.16-1.16,1.16,1.16,0,0,0-1.16,1.16" transform="translate(-95.85 -348.9)"/><path class="cls-1" d="M203.68,404.59a1.16,1.16,0,1,0,1.16-1.16,1.16,1.16,0,0,0-1.16,1.16" transform="translate(-95.85 -348.9)"/><path class="cls-1" d="M199.06,404.14a1.16,1.16,0,1,0,1.16-1.16,1.16,1.16,0,0,0-1.16,1.16" transform="translate(-95.85 -348.9)"/><path class="cls-1" d="M194.9,402.23a1.16,1.16,0,1,0,1.16-1.16,1.16,1.16,0,0,0-1.16,1.16" transform="translate(-95.85 -348.9)"/><path class="cls-1" d="M192.22,398.49a1.16,1.16,0,1,0,1.16-1.16,1.16,1.16,0,0,0-1.16,1.16" transform="translate(-95.85 -348.9)"/><path class="cls-1" d="M191.42,393.94a1.16,1.16,0,1,0,1.16-1.16,1.16,1.16,0,0,0-1.16,1.16" transform="translate(-95.85 -348.9)"/><path class="cls-1" d="M191.25,389.3a1.16,1.16,0,1,0,1.16-1.16,1.16,1.16,0,0,0-1.16,1.16" transform="translate(-95.85 -348.9)"/><path class="cls-1" d="M191.17,384.66a1.16,1.16,0,1,0,1.16-1.16,1.16,1.16,0,0,0-1.16,1.16" transform="translate(-95.85 -348.9)"/><path class="cls-1" d="M191.13,380a1.16,1.16,0,1,0,1.16-1.16,1.16,1.16,0,0,0-1.16,1.16" transform="translate(-95.85 -348.9)"/><path class="cls-1" d="M191.13,375.37a1.16,1.16,0,1,0,1.16-1.16,1.16,1.16,0,0,0-1.16,1.16" transform="translate(-95.85 -348.9)"/><path class="cls-1" d="M191.17,370.73a1.16,1.16,0,1,0,1.16-1.16,1.16,1.16,0,0,0-1.16,1.16" transform="translate(-95.85 -348.9)"/><path class="cls-1" d="M267,350.77a1.16,1.16,0,1,0,1.16-1.16,1.16,1.16,0,0,0-1.16,1.16" transform="translate(-95.85 -348.9)"/><path class="cls-1" d="M267,355.32a1.16,1.16,0,1,0,1.16-1.16,1.16,1.16,0,0,0-1.16,1.16" transform="translate(-95.85 -348.9)"/><path class="cls-1" d="M267.05,359.87a1.16,1.16,0,1,0,1.16-1.16,1.16,1.16,0,0,0-1.16,1.16" transform="translate(-95.85 -348.9)"/><path class="cls-1" d="M268.08,364.29a1.16,1.16,0,1,0,1.16-1.16,1.16,1.16,0,0,0-1.16,1.16" transform="translate(-95.85 -348.9)"/><path class="cls-1" d="M270.62,368a1.16,1.16,0,1,0,1.16-1.16,1.16,1.16,0,0,0-1.16,1.16" transform="translate(-95.85 -348.9)"/><path class="cls-1" d="M274.49,370.36a1.16,1.16,0,1,0,1.16-1.16,1.16,1.16,0,0,0-1.16,1.16" transform="translate(-95.85 -348.9)"/><path class="cls-1" d="M278.83,371.73a1.16,1.16,0,1,0,1.16-1.16,1.16,1.16,0,0,0-1.16,1.16" transform="translate(-95.85 -348.9)"/><path class="cls-1" d="M283.18,373.08a1.16,1.16,0,1,0,1.16-1.16,1.16,1.16,0,0,0-1.16,1.16" transform="translate(-95.85 -348.9)"/><path class="cls-1" d="M287.52,374.44a1.16,1.16,0,1,0,1.16-1.16,1.16,1.16,0,0,0-1.16,1.16" transform="translate(-95.85 -348.9)"/><path class="cls-1" d="M291.87,375.79a1.16,1.16,0,1,0,1.16-1.16,1.16,1.16,0,0,0-1.16,1.16" transform="translate(-95.85 -348.9)"/><path class="cls-1" d="M300.62,379.4a1.16,1.16,0,1,0,1.16-1.16,1.16,1.16,0,0,0-1.16,1.16" transform="translate(-95.85 -348.9)"/><path class="cls-1" d="M305,380.77a1.16,1.16,0,1,0,1.16-1.16,1.16,1.16,0,0,0-1.16,1.16" transform="translate(-95.85 -348.9)"/><path class="cls-1" d="M309.31,382.13a1.16,1.16,0,1,0,1.16-1.16,1.16,1.16,0,0,0-1.16,1.16" transform="translate(-95.85 -348.9)"/><path class="cls-1" d="M313.65,383.49a1.16,1.16,0,1,0,1.16-1.16,1.16,1.16,0,0,0-1.16,1.16" transform="translate(-95.85 -348.9)"/><path class="cls-1" d="M318,384.87a1.16,1.16,0,1,0,1.16-1.16,1.16,1.16,0,0,0-1.16,1.16" transform="translate(-95.85 -348.9)"/><path class="cls-1" d="M321.87,387.19A1.16,1.16,0,1,0,323,386a1.16,1.16,0,0,0-1.16,1.16" transform="translate(-95.85 -348.9)"/><path class="cls-1" d="M324.44,390.9a1.16,1.16,0,1,0,1.16-1.16,1.16,1.16,0,0,0-1.16,1.16" transform="translate(-95.85 -348.9)"/><path class="cls-1" d="M325.5,395.31a1.16,1.16,0,1,0,1.16-1.16,1.16,1.16,0,0,0-1.16,1.16" transform="translate(-95.85 -348.9)"/><path class="cls-1" d="M325.6,399.86a1.16,1.16,0,1,0,1.16-1.16,1.16,1.16,0,0,0-1.16,1.16" transform="translate(-95.85 -348.9)"/><path class="cls-1" d="M325.6,404.41a1.16,1.16,0,1,0,1.16-1.16,1.16,1.16,0,0,0-1.16,1.16" transform="translate(-95.85 -348.9)"/><path class="cls-1" d="M327.85,350.77a1.16,1.16,0,1,1-1.16-1.16,1.16,1.16,0,0,1,1.16,1.16" transform="translate(-95.85 -348.9)"/><path class="cls-1" d="M327.85,355.32a1.16,1.16,0,1,1-1.16-1.16,1.16,1.16,0,0,1,1.16,1.16" transform="translate(-95.85 -348.9)"/><path class="cls-1" d="M327.76,359.87a1.16,1.16,0,1,1-1.16-1.16,1.16,1.16,0,0,1,1.16,1.16" transform="translate(-95.85 -348.9)"/><path class="cls-1" d="M326.73,364.29a1.16,1.16,0,1,1-1.16-1.16,1.16,1.16,0,0,1,1.16,1.16" transform="translate(-95.85 -348.9)"/><path class="cls-1" d="M324.19,368a1.16,1.16,0,1,1-1.16-1.16,1.16,1.16,0,0,1,1.16,1.16" transform="translate(-95.85 -348.9)"/><path class="cls-1" d="M320.32,370.36a1.16,1.16,0,1,1-1.16-1.16,1.16,1.16,0,0,1,1.16,1.16" transform="translate(-95.85 -348.9)"/><path class="cls-1" d="M316,371.73a1.16,1.16,0,1,1-1.16-1.16,1.16,1.16,0,0,1,1.16,1.16" transform="translate(-95.85 -348.9)"/><path class="cls-1" d="M311.63,373.08a1.16,1.16,0,1,1-1.16-1.16,1.16,1.16,0,0,1,1.16,1.16" transform="translate(-95.85 -348.9)"/><path class="cls-1" d="M307.29,374.44a1.16,1.16,0,1,1-1.16-1.16,1.16,1.16,0,0,1,1.16,1.16" transform="translate(-95.85 -348.9)"/><path class="cls-1" d="M302.94,375.79a1.16,1.16,0,1,1-1.16-1.16,1.16,1.16,0,0,1,1.16,1.16" transform="translate(-95.85 -348.9)"/><path class="cls-1" d="M298.57,377.6a1.16,1.16,0,1,1-1.16-1.16,1.16,1.16,0,0,1,1.16,1.16" transform="translate(-95.85 -348.9)"/><path class="cls-1" d="M294.19,379.4a1.16,1.16,0,1,1-1.16-1.16,1.16,1.16,0,0,1,1.16,1.16" transform="translate(-95.85 -348.9)"/><path class="cls-1" d="M289.85,380.77a1.16,1.16,0,1,1-1.16-1.16,1.16,1.16,0,0,1,1.16,1.16" transform="translate(-95.85 -348.9)"/><path class="cls-1" d="M285.5,382.13a1.16,1.16,0,1,1-1.16-1.16,1.16,1.16,0,0,1,1.16,1.16" transform="translate(-95.85 -348.9)"/><path class="cls-1" d="M281.17,383.49a1.16,1.16,0,1,1-1.16-1.16,1.16,1.16,0,0,1,1.16,1.16" transform="translate(-95.85 -348.9)"/><path class="cls-1" d="M276.83,384.87a1.16,1.16,0,1,1-1.16-1.16,1.16,1.16,0,0,1,1.16,1.16" transform="translate(-95.85 -348.9)"/><path class="cls-1" d="M272.94,387.19a1.16,1.16,0,1,1-1.16-1.16,1.16,1.16,0,0,1,1.16,1.16" transform="translate(-95.85 -348.9)"/><path class="cls-1" d="M270.37,390.9a1.16,1.16,0,1,1-1.16-1.16,1.16,1.16,0,0,1,1.16,1.16" transform="translate(-95.85 -348.9)"/><path class="cls-1" d="M269.31,395.31a1.16,1.16,0,1,1-1.16-1.16,1.16,1.16,0,0,1,1.16,1.16" transform="translate(-95.85 -348.9)"/><path class="cls-1" d="M269.22,399.86a1.16,1.16,0,1,1-1.16-1.16,1.16,1.16,0,0,1,1.16,1.16" transform="translate(-95.85 -348.9)"/><path class="cls-1" d="M269.22,404.41a1.16,1.16,0,1,1-1.16-1.16,1.16,1.16,0,0,1,1.16,1.16" transform="translate(-95.85 -348.9)"/><path class="cls-1" d="M344.58,361.45a1.16,1.16,0,1,0,1.16-1.16,1.16,1.16,0,0,0-1.16,1.16" transform="translate(-95.85 -348.9)"/><path class="cls-1" d="M344.41,366.09a1.16,1.16,0,1,0,1.16-1.16,1.16,1.16,0,0,0-1.16,1.16" transform="translate(-95.85 -348.9)"/><path class="cls-1" d="M345.35,356.89a1.16,1.16,0,1,0,1.16-1.16,1.16,1.16,0,0,0-1.16,1.16" transform="translate(-95.85 -348.9)"/><path class="cls-1" d="M348,353.15a1.16,1.16,0,1,0,1.16-1.16,1.16,1.16,0,0,0-1.16,1.16" transform="translate(-95.85 -348.9)"/><path class="cls-1" d="M352.18,351.23a1.16,1.16,0,1,0,1.16-1.16,1.16,1.16,0,0,0-1.16,1.16" transform="translate(-95.85 -348.9)"/><path class="cls-1" d="M356.8,350.77a1.16,1.16,0,1,0,1.16-1.16,1.16,1.16,0,0,0-1.16,1.16" transform="translate(-95.85 -348.9)"/><path class="cls-1" d="M361.43,350.43a1.16,1.16,0,1,0,1.16-1.16,1.16,1.16,0,0,0-1.16,1.16" transform="translate(-95.85 -348.9)"/><path class="cls-1" d="M366.06,350.19a1.16,1.16,0,1,0,1.16-1.16,1.16,1.16,0,0,0-1.16,1.16" transform="translate(-95.85 -348.9)"/><path class="cls-1" d="M370.71,350.07a1.16,1.16,0,1,0,1.16-1.16,1.16,1.16,0,0,0-1.16,1.16" transform="translate(-95.85 -348.9)"/><path class="cls-1" d="M375.35,350.08a1.16,1.16,0,1,0,1.16-1.16,1.16,1.16,0,0,0-1.16,1.16" transform="translate(-95.85 -348.9)"/><path class="cls-1" d="M380,350.2a1.16,1.16,0,1,0,1.16-1.16A1.16,1.16,0,0,0,380,350.2" transform="translate(-95.85 -348.9)"/><path class="cls-1" d="M384.63,350.44a1.16,1.16,0,1,0,1.16-1.16,1.16,1.16,0,0,0-1.16,1.16" transform="translate(-95.85 -348.9)"/><path class="cls-1" d="M389.26,350.79a1.16,1.16,0,1,0,1.16-1.16,1.16,1.16,0,0,0-1.16,1.16" transform="translate(-95.85 -348.9)"/><path class="cls-1" d="M393.88,351.27a1.16,1.16,0,1,0,1.16-1.16,1.16,1.16,0,0,0-1.16,1.16" transform="translate(-95.85 -348.9)"/><path class="cls-1" d="M398,353.29a1.16,1.16,0,1,0,1.16-1.16,1.16,1.16,0,0,0-1.16,1.16" transform="translate(-95.85 -348.9)"/><path class="cls-1" d="M400.61,357.07a1.16,1.16,0,1,0,1.16-1.16,1.16,1.16,0,0,0-1.16,1.16" transform="translate(-95.85 -348.9)"/><path class="cls-1" d="M401.32,361.64a1.16,1.16,0,1,0,1.16-1.16,1.16,1.16,0,0,0-1.16,1.16" transform="translate(-95.85 -348.9)"/><path class="cls-1" d="M401.44,366.28a1.16,1.16,0,1,0,1.16-1.16,1.16,1.16,0,0,0-1.16,1.16" transform="translate(-95.85 -348.9)"/><path class="cls-1" d="M401.5,370.92a1.16,1.16,0,1,0,1.16-1.16,1.16,1.16,0,0,0-1.16,1.16" transform="translate(-95.85 -348.9)"/><path class="cls-1" d="M401.52,375.57a1.16,1.16,0,1,0,1.16-1.16,1.16,1.16,0,0,0-1.16,1.16" transform="translate(-95.85 -348.9)"/><path class="cls-1" d="M401.52,379.72a1.16,1.16,0,1,0,1.16-1.16,1.16,1.16,0,0,0-1.16,1.16" transform="translate(-95.85 -348.9)"/><path class="cls-1" d="M401.5,384.37a1.16,1.16,0,1,0,1.16-1.16,1.16,1.16,0,0,0-1.16,1.16" transform="translate(-95.85 -348.9)"/><path class="cls-1" d="M401.44,389a1.16,1.16,0,1,0,1.16-1.16,1.16,1.16,0,0,0-1.16,1.16" transform="translate(-95.85 -348.9)"/><path class="cls-1" d="M401.32,393.65a1.16,1.16,0,1,0,1.16-1.16,1.16,1.16,0,0,0-1.16,1.16" transform="translate(-95.85 -348.9)"/><path class="cls-1" d="M400.61,398.22a1.16,1.16,0,1,0,1.16-1.16,1.16,1.16,0,0,0-1.16,1.16" transform="translate(-95.85 -348.9)"/><path class="cls-1" d="M398,402a1.16,1.16,0,1,0,1.16-1.16A1.16,1.16,0,0,0,398,402" transform="translate(-95.85 -348.9)"/><path class="cls-1" d="M393.93,404.08a1.16,1.16,0,1,0,1.16-1.16,1.16,1.16,0,0,0-1.16,1.16" transform="translate(-95.85 -348.9)"/><path class="cls-1" d="M389.31,404.56a1.16,1.16,0,1,0,1.16-1.16,1.16,1.16,0,0,0-1.16,1.16" transform="translate(-95.85 -348.9)"/><path class="cls-1" d="M384.68,404.89a1.16,1.16,0,1,0,1.16-1.16,1.16,1.16,0,0,0-1.16,1.16" transform="translate(-95.85 -348.9)"/><path class="cls-1" d="M380,405.11a1.16,1.16,0,1,0,1.16-1.16,1.16,1.16,0,0,0-1.16,1.16" transform="translate(-95.85 -348.9)"/><path class="cls-1" d="M375.4,405.21a1.16,1.16,0,1,0,1.16-1.16,1.16,1.16,0,0,0-1.16,1.16" transform="translate(-95.85 -348.9)"/><path class="cls-1" d="M370.76,405.22a1.16,1.16,0,1,0,1.16-1.16,1.16,1.16,0,0,0-1.16,1.16" transform="translate(-95.85 -348.9)"/><path class="cls-1" d="M366.12,405.12a1.16,1.16,0,1,0,1.16-1.16,1.16,1.16,0,0,0-1.16,1.16" transform="translate(-95.85 -348.9)"/><path class="cls-1" d="M361.48,404.91a1.16,1.16,0,1,0,1.16-1.16,1.16,1.16,0,0,0-1.16,1.16" transform="translate(-95.85 -348.9)"/><path class="cls-1" d="M356.84,404.59a1.16,1.16,0,1,0,1.16-1.16,1.16,1.16,0,0,0-1.16,1.16" transform="translate(-95.85 -348.9)"/><path class="cls-1" d="M352.22,404.14a1.16,1.16,0,1,0,1.16-1.16,1.16,1.16,0,0,0-1.16,1.16" transform="translate(-95.85 -348.9)"/><path class="cls-1" d="M348.06,402.23a1.16,1.16,0,1,0,1.16-1.16,1.16,1.16,0,0,0-1.16,1.16" transform="translate(-95.85 -348.9)"/><path class="cls-1" d="M345.38,398.49a1.16,1.16,0,1,0,1.16-1.16,1.16,1.16,0,0,0-1.16,1.16" transform="translate(-95.85 -348.9)"/><path class="cls-1" d="M344.58,393.94a1.16,1.16,0,1,0,1.16-1.16,1.16,1.16,0,0,0-1.16,1.16" transform="translate(-95.85 -348.9)"/><path class="cls-1" d="M344.41,389.3a1.16,1.16,0,1,0,1.16-1.16,1.16,1.16,0,0,0-1.16,1.16" transform="translate(-95.85 -348.9)"/><path class="cls-1" d="M344.33,384.66a1.16,1.16,0,1,0,1.16-1.16,1.16,1.16,0,0,0-1.16,1.16" transform="translate(-95.85 -348.9)"/><path class="cls-1" d="M344.3,380a1.16,1.16,0,1,0,1.16-1.16A1.16,1.16,0,0,0,344.3,380" transform="translate(-95.85 -348.9)"/><path class="cls-1" d="M344.3,375.37a1.16,1.16,0,1,0,1.16-1.16,1.16,1.16,0,0,0-1.16,1.16" transform="translate(-95.85 -348.9)"/><path class="cls-1" d="M344.33,370.73a1.16,1.16,0,1,0,1.16-1.16,1.16,1.16,0,0,0-1.16,1.16" transform="translate(-95.85 -348.9)"/><path class="cls-1" d="M421.81,404a1.16,1.16,0,1,0,1.16-1.16,1.16,1.16,0,0,0-1.16,1.16" transform="translate(-95.85 -348.9)"/><path class="cls-1" d="M421.81,399.37a1.16,1.16,0,1,0,1.16-1.16,1.16,1.16,0,0,0-1.16,1.16" transform="translate(-95.85 -348.9)"/><path class="cls-1" d="M421.81,394.73a1.16,1.16,0,1,0,1.16-1.16,1.16,1.16,0,0,0-1.16,1.16" transform="translate(-95.85 -348.9)"/><path class="cls-1" d="M421.81,390.08a1.16,1.16,0,1,0,1.16-1.16,1.16,1.16,0,0,0-1.16,1.16" transform="translate(-95.85 -348.9)"/><path class="cls-1" d="M421.81,385.44a1.16,1.16,0,1,0,1.16-1.16,1.16,1.16,0,0,0-1.16,1.16" transform="translate(-95.85 -348.9)"/><path class="cls-1" d="M421.81,380.8a1.16,1.16,0,1,0,1.16-1.16,1.16,1.16,0,0,0-1.16,1.16" transform="translate(-95.85 -348.9)"/><path class="cls-1" d="M421.81,376.15A1.16,1.16,0,1,0,423,375a1.16,1.16,0,0,0-1.16,1.16" transform="translate(-95.85 -348.9)"/><path class="cls-1" d="M421.81,371.51a1.16,1.16,0,1,0,1.16-1.16,1.16,1.16,0,0,0-1.16,1.16" transform="translate(-95.85 -348.9)"/><path class="cls-1" d="M421.81,366.87a1.16,1.16,0,1,0,1.16-1.16,1.16,1.16,0,0,0-1.16,1.16" transform="translate(-95.85 -348.9)"/><path class="cls-1" d="M421.81,362.22a1.16,1.16,0,1,0,1.16-1.16,1.16,1.16,0,0,0-1.16,1.16" transform="translate(-95.85 -348.9)"/><path class="cls-1" d="M421.81,357.58a1.16,1.16,0,1,0,1.16-1.16,1.16,1.16,0,0,0-1.16,1.16" transform="translate(-95.85 -348.9)"/><path class="cls-1" d="M421.81,352.94a1.16,1.16,0,1,0,1.16-1.16,1.16,1.16,0,0,0-1.16,1.16" transform="translate(-95.85 -348.9)"/><path class="cls-1" d="M425.67,351.72a1.16,1.16,0,1,0,1.16-1.16,1.16,1.16,0,0,0-1.16,1.16" transform="translate(-95.85 -348.9)"/><path class="cls-1" d="M430.29,351.23a1.16,1.16,0,1,0,1.16-1.16,1.16,1.16,0,0,0-1.16,1.16" transform="translate(-95.85 -348.9)"/><path class="cls-1" d="M434.91,350.8a1.16,1.16,0,1,0,1.16-1.16,1.16,1.16,0,0,0-1.16,1.16" transform="translate(-95.85 -348.9)"/><path class="cls-1" d="M439.54,350.45a1.16,1.16,0,1,0,1.16-1.16,1.16,1.16,0,0,0-1.16,1.16" transform="translate(-95.85 -348.9)"/><path class="cls-1" d="M444.18,350.2a1.16,1.16,0,1,0,1.16-1.16,1.16,1.16,0,0,0-1.16,1.16" transform="translate(-95.85 -348.9)"/><path class="cls-1" d="M448.82,350.07a1.16,1.16,0,1,0,1.16-1.16,1.16,1.16,0,0,0-1.16,1.16" transform="translate(-95.85 -348.9)"/><path class="cls-1" d="M453.46,350.09a1.16,1.16,0,1,0,1.16-1.16,1.16,1.16,0,0,0-1.16,1.16" transform="translate(-95.85 -348.9)"/><path class="cls-1" d="M458.1,350.22a1.16,1.16,0,1,0,1.16-1.16,1.16,1.16,0,0,0-1.16,1.16" transform="translate(-95.85 -348.9)"/><path class="cls-1" d="M462.74,350.48a1.16,1.16,0,1,0,1.16-1.16,1.16,1.16,0,0,0-1.16,1.16" transform="translate(-95.85 -348.9)"/><path class="cls-1" d="M467.37,350.84a1.16,1.16,0,1,0,1.16-1.16,1.16,1.16,0,0,0-1.16,1.16" transform="translate(-95.85 -348.9)"/><path class="cls-1" d="M472,351.39a1.16,1.16,0,1,0,1.16-1.16,1.16,1.16,0,0,0-1.16,1.16" transform="translate(-95.85 -348.9)"/><path class="cls-1" d="M475.94,353.7a1.16,1.16,0,1,0,1.16-1.16,1.16,1.16,0,0,0-1.16,1.16" transform="translate(-95.85 -348.9)"/><path class="cls-1" d="M478.32,357.63a1.16,1.16,0,1,0,1.16-1.16,1.16,1.16,0,0,0-1.16,1.16" transform="translate(-95.85 -348.9)"/><path class="cls-1" d="M478.86,362.23a1.16,1.16,0,1,0,1.16-1.16,1.16,1.16,0,0,0-1.16,1.16" transform="translate(-95.85 -348.9)"/><path class="cls-1" d="M479,366.87a1.16,1.16,0,1,0,1.16-1.16,1.16,1.16,0,0,0-1.16,1.16" transform="translate(-95.85 -348.9)"/><path class="cls-1" d="M479,371.51a1.16,1.16,0,1,0,1.16-1.16,1.16,1.16,0,0,0-1.16,1.16" transform="translate(-95.85 -348.9)"/><path class="cls-1" d="M479,376.15A1.16,1.16,0,1,0,480.2,375a1.16,1.16,0,0,0-1.16,1.16" transform="translate(-95.85 -348.9)"/><path class="cls-1" d="M479,380.8a1.16,1.16,0,1,0,1.16-1.16A1.16,1.16,0,0,0,479,380.8" transform="translate(-95.85 -348.9)"/><path class="cls-1" d="M479,385.44a1.16,1.16,0,1,0,1.16-1.16,1.16,1.16,0,0,0-1.16,1.16" transform="translate(-95.85 -348.9)"/><path class="cls-1" d="M479,390.08a1.16,1.16,0,1,0,1.16-1.16,1.16,1.16,0,0,0-1.16,1.16" transform="translate(-95.85 -348.9)"/><path class="cls-1" d="M479,394.73a1.16,1.16,0,1,0,1.16-1.16,1.16,1.16,0,0,0-1.16,1.16" transform="translate(-95.85 -348.9)"/><path class="cls-1" d="M479,399.37a1.16,1.16,0,1,0,1.16-1.16,1.16,1.16,0,0,0-1.16,1.16" transform="translate(-95.85 -348.9)"/><path class="cls-1" d="M479,404a1.16,1.16,0,1,0,1.16-1.16A1.16,1.16,0,0,0,479,404" transform="translate(-95.85 -348.9)"/></svg>